<svg width="240" height="240" viewBox="0 0 240 240" fill="none" xmlns="http://www.w3.org/2000/svg">
<g clip-path="url(#clip0_923_218)">
<rect width="240" height="240" rx="120" fill="black" fill-opacity="0.01"/>
<path d="M43.2 0H196.8C225.6 0 240 14.4 240 43.2V196.8C240 225.6 225.6 240 196.8 240H43.2C14.4 240 0 225.6 0 196.8V43.2C0 14.4 14.4 0 43.2 0Z" fill="#EC5D85"/>
<path d="M119 67.5384H129.071L141.618 49.0048C151.189 39.3222 158.904 49.0875 153.932 57.8006L147.315 67.7118C197 68.6793 197 75.9875 197 130.256C197 192.976 197 195 119 195C41 195 41 192.976 41 130.256C41 76.821 41 68.9118 89.8162 67.7275L82.2116 56.4962C76.1829 45.9309 89.4113 39.0995 94.6857 48.3427L106.336 67.5482C109.843 67.5384 114.279 67.5384 119 67.5384Z" fill="#EF85A7"/>
<path d="M119 86C183 86 183 86 183 132.255C183 178.51 183 180 119 180C55 180 55 178.51 55 132.255C55 86 55 86 119 86Z" fill="#EC5D85"/>
<path d="M74.8844 128.337C73.7917 128.337 72.7206 128.035 71.7911 127.466C70.8616 126.896 70.1104 126.081 69.6216 125.113C68.9235 123.729 68.8084 122.127 69.3017 120.659C69.795 119.191 70.8562 117.977 72.252 117.285L95.7905 105.617C96.4817 105.274 97.2343 105.07 98.0051 105.015C98.776 104.961 99.5501 105.058 100.283 105.3C101.016 105.543 101.694 105.926 102.278 106.428C102.862 106.93 103.34 107.541 103.686 108.226C104.031 108.912 104.237 109.658 104.292 110.422C104.347 111.186 104.249 111.954 104.005 112.681C103.76 113.408 103.374 114.08 102.867 114.658C102.361 115.237 101.745 115.711 101.053 116.054L77.5148 127.722C76.6983 128.128 75.7975 128.338 74.8844 128.337ZM165.115 128.337C164.265 128.336 163.425 128.153 162.653 127.798L137.153 116.13C135.736 115.482 134.636 114.303 134.096 112.851C133.556 111.4 133.619 109.795 134.272 108.39C134.596 107.694 135.055 107.068 135.622 106.549C136.19 106.029 136.855 105.625 137.58 105.36C138.306 105.095 139.076 104.974 139.848 105.005C140.621 105.035 141.379 105.216 142.081 105.537L167.581 117.205C168.799 117.762 169.788 118.716 170.385 119.907C170.982 121.098 171.151 122.455 170.863 123.754C170.575 125.053 169.849 126.216 168.803 127.049C167.758 127.883 166.457 128.337 165.115 128.337ZM108.034 149C107.577 148.999 107.126 148.892 106.717 148.687C106.309 148.483 105.954 148.187 105.681 147.823C105.213 147.204 105.012 146.427 105.123 145.661C105.233 144.896 105.645 144.205 106.269 143.741L119.392 134.072L129.037 144.066C129.576 144.625 129.869 145.374 129.852 146.147C129.835 146.921 129.508 147.656 128.944 148.191C128.38 148.726 127.625 149.016 126.845 148.999C126.065 148.982 125.323 148.658 124.784 148.099L118.733 141.828L109.784 148.422C109.279 148.796 108.665 148.999 108.034 149Z" fill="#EF85A7"/>
<path d="M33 91.7186C35.8859 111.521 39.3065 120.317 41.5515 160.763C44.3607 161.187 75.667 162.715 80.7252 146.262C81.0718 145.617 81.1838 144.869 81.0417 144.149C75.1658 128.539 48.5559 132.409 48.5559 132.409C48.5559 132.409 46.5664 103.942 46.3482 86L33 91.7186ZM89.9628 94.3848L96.6467 153.296H103.297L98.2155 94.0147L89.9628 94.3848ZM79.8406 124.164H88.5729L91.6633 154.985L85.5534 155.345L79.8406 124.164ZM106.207 125.465H115V157.01H108.497L106.207 125.465ZM77.3597 108.946H81.4663L82.4788 120.409L78.8478 120.849L77.3597 108.946ZM83.1943 108.946H87.301L87.7886 119.79L84.4466 120.104L83.1943 108.946ZM110.767 109.318H114.503V121.42H110.767V109.318ZM104.935 109.318H109.197V121.42H106.004L104.935 109.318Z" fill="white"/>
<path d="M67.7676 145.28C66.0003 146.855 64.1212 148.318 62.1432 149.658C60.2825 150.862 58.3326 151.942 56.3084 152.889C56.2319 152.947 56.1397 152.984 56.0421 152.996C55.9444 153.008 55.8451 152.994 55.755 152.957C55.665 152.92 55.5877 152.86 55.5319 152.784C55.476 152.708 55.4437 152.62 55.4385 152.528C54.9884 150.73 54.6507 148.909 54.4269 147.075C54.1477 144.828 54.0405 142.34 54 140.37C54 140.314 54 139.908 54.5948 140.019C56.8913 140.455 59.151 141.045 61.3562 141.785C63.5543 142.578 65.6905 143.513 67.7494 144.583C67.8526 144.63 68.2471 144.857 67.7676 145.28Z" fill="#EB5480"/>
<path d="M119 91.7186C121.886 111.521 125.306 120.317 127.551 160.763C130.361 161.187 161.667 162.715 166.725 146.262C167.072 145.617 167.184 144.869 167.042 144.149C161.166 128.539 134.556 132.409 134.556 132.409C134.556 132.409 132.566 103.942 132.348 86L119 91.7186ZM175.963 94.3848L182.647 153.296H189.297L184.215 94.0147L175.963 94.3848ZM165.841 124.164H174.573L177.663 154.985L171.553 155.345L165.841 124.164ZM192.207 125.465H201V157.01H194.497L192.207 125.465ZM163.36 108.946H167.466L168.479 120.409L164.848 120.849L163.36 108.946ZM169.194 108.946H173.301L173.789 119.79L170.447 120.104L169.194 108.946ZM196.767 109.318H200.503V121.42H196.767V109.318ZM190.935 109.318H195.197V121.42H192.004L190.935 109.318Z" fill="white"/>
<path d="M153.768 145.28C152 146.855 150.121 148.318 148.143 149.658C146.282 150.862 144.333 151.942 142.308 152.889C142.232 152.947 142.14 152.984 142.042 152.996C141.944 153.008 141.845 152.994 141.755 152.957C141.665 152.92 141.588 152.86 141.532 152.784C141.476 152.708 141.444 152.62 141.438 152.528C140.988 150.73 140.651 148.909 140.427 147.075C140.148 144.828 140.04 142.34 140 140.37C140 140.314 140 139.908 140.595 140.019C142.891 140.455 145.151 141.045 147.356 141.785C149.554 142.578 151.69 143.513 153.749 144.583C153.853 144.63 154.247 144.857 153.768 145.28Z" fill="#EB5480"/>
</g>
<defs>
<clipPath id="clip0_923_218">
<rect width="240" height="240" rx="120" fill="white"/>
</clipPath>
</defs>
</svg>
