<svg width="240" height="240" viewBox="0 0 240 240" fill="none" xmlns="http://www.w3.org/2000/svg">
<g clip-path="url(#clip0_923_250)">
<path d="M120.039 0C69.9403 0 55.2882 0.0517032 52.4402 0.287999C42.1591 1.14284 35.7616 2.76208 28.7917 6.23305C23.4205 8.90106 19.1843 11.9936 15.0035 16.3287C7.3896 24.2346 2.77507 33.961 1.10458 45.5226C0.292467 51.1354 0.0561688 52.28 0.00818394 80.9496C-0.0102299 90.5061 0.00818394 103.083 0.00818394 119.953C0.00818394 170.025 0.0635159 184.666 0.303531 187.509C1.13415 197.516 2.70305 203.812 6.02552 210.699C12.3751 223.882 24.502 233.778 38.7886 237.471C43.7354 238.744 49.199 239.446 56.213 239.778C59.1848 239.908 89.4744 240 119.783 240C150.091 240 180.399 239.963 183.297 239.815C191.418 239.433 196.134 238.8 201.349 237.452C215.728 233.741 227.633 223.992 234.112 210.625C237.37 203.905 239.022 197.369 239.769 187.884C239.932 185.816 240 152.847 240 119.922C240 86.9907 239.926 54.0821 239.764 52.0142C239.007 42.3765 237.355 35.896 233.992 29.0461C231.232 23.4388 228.168 19.2514 223.72 14.9699C215.781 7.38523 206.072 2.76943 194.503 1.10039C188.897 0.289815 187.78 0.0497991 159.096 0H120.039Z" fill="url(#paint0_radial_923_250)"/>
<path d="M120.039 0C69.9403 0 55.2882 0.0517032 52.4402 0.287999C42.1591 1.14284 35.7616 2.76208 28.7917 6.23305C23.4205 8.90106 19.1843 11.9936 15.0035 16.3287C7.3896 24.2346 2.77507 33.961 1.10458 45.5226C0.292467 51.1354 0.0561688 52.28 0.00818394 80.9496C-0.0102299 90.5061 0.00818394 103.083 0.00818394 119.953C0.00818394 170.025 0.0635159 184.666 0.303531 187.509C1.13415 197.516 2.70305 203.812 6.02552 210.699C12.3751 223.882 24.502 233.778 38.7886 237.471C43.7354 238.744 49.199 239.446 56.213 239.778C59.1848 239.908 89.4744 240 119.783 240C150.091 240 180.399 239.963 183.297 239.815C191.418 239.433 196.134 238.8 201.349 237.452C215.728 233.741 227.633 223.992 234.112 210.625C237.37 203.905 239.022 197.369 239.769 187.884C239.932 185.816 240 152.847 240 119.922C240 86.9907 239.926 54.0821 239.764 52.0142C239.007 42.3765 237.355 35.896 233.992 29.0461C231.232 23.4388 228.168 19.2514 223.72 14.9699C215.781 7.38523 206.072 2.76943 194.503 1.10039C188.897 0.289815 187.78 0.0497991 159.096 0H120.039Z" fill="url(#paint1_radial_923_250)"/>
<path d="M120.039 0C69.9403 0 55.2882 0.0517032 52.4402 0.287999C42.1591 1.14284 35.7616 2.76208 28.7917 6.23305C23.4205 8.90106 19.1843 11.9936 15.0035 16.3287C7.3896 24.2346 2.77507 33.961 1.10458 45.5226C0.292467 51.1354 0.0561688 52.28 0.00818394 80.9496C-0.0102299 90.5061 0.00818394 103.083 0.00818394 119.953C0.00818394 170.025 0.0635159 184.666 0.303531 187.509C1.13415 197.516 2.70305 203.812 6.02552 210.699C12.3751 223.882 24.502 233.778 38.7886 237.471C43.7354 238.744 49.199 239.446 56.213 239.778C59.1848 239.908 89.4744 240 119.783 240C150.091 240 180.399 239.963 183.297 239.815C191.418 239.433 196.134 238.8 201.349 237.452C215.728 233.741 227.633 223.992 234.112 210.625C237.37 203.905 239.022 197.369 239.769 187.884C239.932 185.816 240 152.847 240 119.922C240 86.9907 239.926 54.0821 239.764 52.0142C239.007 42.3765 237.355 35.896 233.992 29.0461C231.232 23.4388 228.168 19.2514 223.72 14.9699C215.781 7.38523 206.072 2.76943 194.503 1.10039C188.897 0.289815 187.78 0.0497991 159.096 0H120.039Z" fill="url(#paint2_radial_923_250)"/>
<path d="M120.039 0C69.9403 0 55.2882 0.0517032 52.4402 0.287999C42.1591 1.14284 35.7616 2.76208 28.7917 6.23305C23.4205 8.90106 19.1843 11.9936 15.0035 16.3287C7.3896 24.2346 2.77507 33.961 1.10458 45.5226C0.292467 51.1354 0.0561688 52.28 0.00818394 80.9496C-0.0102299 90.5061 0.00818394 103.083 0.00818394 119.953C0.00818394 170.025 0.0635159 184.666 0.303531 187.509C1.13415 197.516 2.70305 203.812 6.02552 210.699C12.3751 223.882 24.502 233.778 38.7886 237.471C43.7354 238.744 49.199 239.446 56.213 239.778C59.1848 239.908 89.4744 240 119.783 240C150.091 240 180.399 239.963 183.297 239.815C191.418 239.433 196.134 238.8 201.349 237.452C215.728 233.741 227.633 223.992 234.112 210.625C237.37 203.905 239.022 197.369 239.769 187.884C239.932 185.816 240 152.847 240 119.922C240 86.9907 239.926 54.0821 239.764 52.0142C239.007 42.3765 237.355 35.896 233.992 29.0461C231.232 23.4388 228.168 19.2514 223.72 14.9699C215.781 7.38523 206.072 2.76943 194.503 1.10039C188.897 0.289815 187.78 0.0497991 159.096 0H120.039Z" fill="url(#paint3_radial_923_250)"/>
<path d="M120.049 30.8164C95.8142 30.8164 92.7728 30.9223 83.2545 31.3551C73.7548 31.7898 67.2705 33.2927 61.5967 35.4978C55.7278 37.7752 50.7492 40.8218 45.7894 45.7798C40.8258 50.7361 37.7769 55.7109 35.4903 61.5736C33.278 67.2451 31.7722 73.7264 31.3446 83.2154C30.9189 92.7265 30.8074 95.7675 30.8074 119.984C30.8074 144.2 30.9152 147.23 31.3465 156.741C31.7834 166.234 33.2873 172.714 35.4921 178.383C37.7732 184.248 40.822 189.223 45.7837 194.179C50.7419 199.139 55.7203 202.193 61.5855 204.47C67.263 206.675 73.7493 208.178 83.2471 208.613C92.7654 209.046 95.8049 209.151 120.037 209.151C144.274 209.151 147.306 209.046 156.824 208.613C166.324 208.178 172.816 206.675 178.493 204.47C184.36 202.193 189.331 199.139 194.289 194.179C199.253 189.223 202.302 184.248 204.588 178.385C206.782 172.714 208.288 166.232 208.734 156.743C209.161 147.232 209.273 144.2 209.273 119.984C209.273 95.7674 209.161 92.7284 208.734 83.2172C208.288 73.7245 206.782 67.2451 204.588 61.5755C202.302 55.7109 199.253 50.736 194.289 45.7798C189.326 40.8199 184.362 37.7733 178.487 35.4977C172.799 33.2927 166.311 31.7898 156.811 31.3551C147.293 30.9223 144.263 30.8164 120.021 30.8164H120.049ZM112.044 46.8852C114.419 46.8815 117.07 46.8852 120.049 46.8852C143.874 46.8852 146.698 46.9706 156.106 47.3979C164.807 47.7954 169.529 49.248 172.674 50.4685C176.838 52.0847 179.807 54.0167 182.929 57.1375C186.052 60.2584 187.985 63.2307 189.606 67.3918C190.828 70.5312 192.283 75.2497 192.679 83.9436C193.107 93.3433 193.2 96.1669 193.2 119.964C193.2 143.76 193.107 146.584 192.679 155.983C192.281 164.677 190.828 169.396 189.606 172.535C187.989 176.696 186.052 179.659 182.929 182.778C179.806 185.899 176.84 187.831 172.674 189.447C169.532 190.673 164.807 192.122 156.106 192.52C146.7 192.947 143.874 193.04 120.049 193.04C96.2213 193.04 93.3974 192.947 83.9907 192.52C75.2905 192.119 70.5685 190.666 67.4211 189.445C63.2569 187.829 60.2823 185.897 57.1592 182.776C54.036 179.656 52.1027 176.691 50.4815 172.528C49.2601 169.388 47.8045 164.67 47.4086 155.976C46.981 146.576 46.8955 143.753 46.8955 119.941C46.8955 96.1298 46.981 93.3209 47.4086 83.9213C47.8065 75.2274 49.2601 70.509 50.4815 67.3658C52.0989 63.2047 54.036 60.2324 57.1592 57.1116C60.2823 53.9907 63.2569 52.0587 67.4211 50.4389C70.5666 49.2128 75.2905 47.7639 83.9907 47.3644C92.2225 46.9928 95.4126 46.8815 112.044 46.8628L112.044 46.8852ZM167.681 61.6906C161.769 61.6906 156.973 66.4779 156.973 72.387C156.973 78.2944 161.769 83.0872 167.681 83.0872C173.593 83.0872 178.389 78.2944 178.389 72.387C178.389 66.4797 173.593 61.687 167.681 61.687L167.681 61.6906ZM120.049 74.1927C94.7415 74.1927 74.2234 94.6956 74.2234 119.984C74.2234 145.272 94.7415 165.766 120.049 165.766C145.356 165.766 165.866 145.272 165.866 119.984C165.866 94.6956 145.354 74.1927 120.047 74.1927H120.049ZM120.049 90.2614C136.475 90.2614 149.793 103.568 149.793 119.984C149.793 136.398 136.475 149.706 120.049 149.706C103.62 149.706 90.304 136.398 90.304 119.984C90.304 103.568 103.62 90.2614 120.049 90.2614Z" fill="white"/>
</g>
<defs>
<radialGradient id="paint0_radial_923_250" cx="0" cy="0" r="1" gradientTransform="matrix(-147.589 41.6236 -29.9883 -106.331 232.25 112.491)" gradientUnits="userSpaceOnUse">
<stop stop-color="#FF005F"/>
<stop offset="1" stop-color="#FC01D8"/>
</radialGradient>
<radialGradient id="paint1_radial_923_250" cx="0" cy="0" r="1" gradientUnits="userSpaceOnUse" gradientTransform="translate(63.7482 258.485) rotate(-90) scale(191.572 203.254)">
<stop stop-color="#FFCC00"/>
<stop offset="0.1242" stop-color="#FFCC00"/>
<stop offset="0.5672" stop-color="#FE4A05"/>
<stop offset="0.6942" stop-color="#FF0F3F"/>
<stop offset="1" stop-color="#FE0657" stop-opacity="0"/>
</radialGradient>
<radialGradient id="paint2_radial_923_250" cx="0" cy="0" r="1" gradientTransform="matrix(39.7636 -68.514 89.1974 51.768 126.065 236.615)" gradientUnits="userSpaceOnUse">
<stop stop-color="#FFCC00"/>
<stop offset="1" stop-color="#FFCC00" stop-opacity="0"/>
</radialGradient>
<radialGradient id="paint3_radial_923_250" cx="0" cy="0" r="1" gradientTransform="matrix(-145.969 41.1024 -14 -49.7325 32.5629 9.77273)" gradientUnits="userSpaceOnUse">
<stop stop-color="#780CFF"/>
<stop offset="1" stop-color="#820BFF" stop-opacity="0"/>
</radialGradient>
<clipPath id="clip0_923_250">
<rect width="240" height="240" rx="100" fill="white"/>
</clipPath>
</defs>
</svg>
