<svg width="240" height="240" viewBox="0 0 240 240" fill="none" xmlns="http://www.w3.org/2000/svg">
<g clip-path="url(#clip0_923_227)">
<rect width="240" height="240" rx="120" fill="black" fill-opacity="0.01"/>
<path d="M31.35 0H207.816C224.625 0 239.559 14.5969 240 31.3875V207.863C239.806 216.335 236.351 224.405 230.353 230.392C224.355 236.379 216.279 239.821 207.806 240H31.4062C23.0632 239.612 15.1789 236.07 9.34834 230.09C3.51782 224.109 0.176377 216.138 0 207.788V31.4625C0.403125 14.9344 14.8219 0.46875 31.35 0ZM47.0344 85.725C46.9125 104.353 46.9781 122.991 46.8844 141.628C46.9575 141.925 46.9604 142.235 46.8929 142.533C46.8254 142.831 46.6894 143.11 46.4956 143.346C46.3018 143.583 46.0556 143.771 45.7765 143.896C45.4974 144.021 45.193 144.079 44.8875 144.066C42.6469 144.197 40.3969 144.122 38.1469 144.141C39.6563 147.891 41.2875 151.509 42.975 155.138C47.2125 154.997 52.05 155.878 55.6688 153.103C58.9219 150.684 59.9625 146.381 59.8969 142.509C59.8969 123.581 59.8969 104.644 59.8125 85.7156C55.5562 85.6969 51.2906 85.6875 47.0344 85.725ZM99.6094 84.8813C96.4344 92.175 93.1969 99.4375 89.8969 106.669C88.9594 108.834 87.825 111.703 89.7937 113.662C92.3156 115.95 96.0188 115.069 99.1125 115.275C96.9656 120.694 94.1437 125.841 92.3344 131.391C91.3312 134.128 93.8344 136.913 96.5719 136.941C101.531 137.278 106.509 136.941 111.478 137.072C113.1 133.444 114.731 129.825 116.325 126.178C113.428 126.178 110.503 126.384 107.653 125.813C110.737 118.069 114.394 110.578 117.666 102.928C113.663 102.459 109.134 103.762 105.478 102.206C107.259 96.2062 110.503 90.7031 112.791 84.8625C108.384 84.8437 103.997 84.8156 99.6094 84.8813ZM167.812 84.9281V89.8125C164.944 89.8125 162.075 89.8125 159.206 89.8125C159.206 94.1875 159.206 98.5406 159.206 102.872C162.084 102.872 164.953 102.872 167.822 102.928C167.897 106.678 167.897 110.453 167.822 114.253C163.509 114.337 159.188 114.253 154.875 114.319C154.819 118.669 154.828 123.009 154.875 127.35C159.197 127.397 163.528 127.35 167.85 127.35C167.85 136.594 167.85 145.847 167.85 155.091C172.181 155.091 176.503 155.091 180.834 155.091C180.834 145.847 180.834 136.606 180.834 127.369C187.153 127.369 193.463 127.275 199.781 127.369C202.003 127.181 204.544 128.737 204.469 131.184C204.642 134.645 204.642 138.112 204.469 141.572C204.502 142.133 204.311 142.683 203.939 143.104C203.566 143.524 203.042 143.779 202.481 143.812C198.872 144.075 195.253 143.812 191.634 143.934C193.228 147.684 194.775 151.434 196.584 155.138C202.538 154.828 209.813 156.328 214.35 151.388C218.663 147.394 217.369 141.075 217.547 135.863C217.275 130.378 218.616 124.181 215.212 119.381C212.316 115.312 207.094 114.206 202.388 114.122C202.106 107.559 203.672 99.8813 198.844 94.5469C194.344 89.5031 187.097 89.4844 180.872 89.7281V84.8531C176.466 84.9 172.134 84.9094 167.812 84.9281ZM121.481 89.8219C121.481 94.1969 121.481 98.5469 121.481 102.872C124.2 102.872 126.909 102.872 129.628 102.872C129.628 115.913 129.628 128.963 129.628 142.003C125.737 142.069 121.837 142.003 117.947 142.05C115.931 146.381 113.963 150.731 112.003 155.081C126.516 155.138 141.066 155.081 155.541 155.081C155.541 150.744 155.541 146.4 155.541 142.05C151.369 142.05 147.187 142.05 143.016 142.003C143.016 128.953 143.016 115.9 143.016 102.844C145.744 102.844 148.462 102.844 151.191 102.844C151.191 98.4938 151.191 94.1344 151.191 89.7844C141.309 89.8031 131.4 89.7844 121.481 89.8219ZM207.122 91.0219C203.484 93.7781 204.675 98.8219 204.516 102.75C206.944 102.75 209.381 102.881 211.809 102.666C215.709 102.309 218.644 97.7625 217.078 94.0875C215.85 90.0562 210.403 88.3031 207.122 91.0219ZM25.3125 102.863C24.6563 111.413 23.9906 119.953 23.3719 128.503C23.2282 130.446 22.8116 132.358 22.1344 134.184C24.3281 139.2 26.5219 144.216 28.8656 149.184C34.1156 142.163 36.0656 133.312 36.6094 124.716C37.0687 117.403 37.8844 110.1 38.1469 102.778C33.8438 102.928 29.5687 102.825 25.3125 102.863ZM68.5594 102.863C69.1844 110.794 69.8094 118.722 70.4344 126.647C71.1188 134.597 73.1719 142.697 78.0281 149.147C80.3438 144.187 82.5562 139.181 84.75 134.147C84.039 132.317 83.5969 130.394 83.4375 128.438C82.8187 119.916 82.1438 111.394 81.4875 102.872C77.1625 102.847 72.8438 102.844 68.5313 102.863H68.5594ZM84.6469 154.134C91.2844 156.094 98.3156 154.753 105.131 155.119C107.138 150.778 109.134 146.428 111.084 142.059C104.269 141.797 97.3313 142.772 90.6469 141.056C88.6031 145.4 86.5938 149.759 84.6188 154.134H84.6469Z" fill="#FF2741"/>
<path d="M180.722 102.909C183.534 103.312 187.284 101.765 189.431 104.034C189.788 107.456 189.525 110.896 189.563 114.346C186.647 114.346 183.722 114.346 180.806 114.346C180.75 110.534 180.722 106.721 180.722 102.909Z" fill="#FF2741"/>
<path d="M47.0345 85.7246C51.2907 85.7246 55.5563 85.7246 59.8126 85.7246C59.9345 104.653 59.8876 123.59 59.897 142.518C59.9626 146.39 58.9595 150.693 55.6689 153.112C52.0501 155.925 47.2313 154.987 42.9751 155.146C41.2876 151.518 39.6563 147.862 38.147 144.15C40.397 144.15 42.647 144.206 44.8876 144.075C45.1931 144.088 45.4975 144.03 45.7766 143.905C46.0557 143.78 46.3019 143.592 46.4957 143.355C46.6895 143.119 46.8255 142.84 46.893 142.542C46.9605 142.244 46.9576 141.934 46.8845 141.637C46.9782 122.99 46.8751 104.353 47.0345 85.7246Z" fill="white"/>
<path d="M99.6094 84.8807C103.997 84.8151 108.384 84.8807 112.734 84.8807C110.447 90.7214 107.203 96.2245 105.422 102.224C109.097 103.781 113.625 102.478 117.609 102.946C114.338 110.596 110.681 118.087 107.597 125.831C110.409 126.403 113.372 126.196 116.269 126.196C114.675 129.843 113.044 133.462 111.422 137.09C106.453 137.006 101.475 137.296 96.5157 136.959C93.7782 136.959 91.2751 134.146 92.2782 131.409C94.0876 125.859 96.9094 120.712 99.0563 115.293C95.9626 115.087 92.2594 115.968 89.7376 113.681C87.7688 111.721 88.9126 108.853 89.8407 106.687C93.1594 99.437 96.4157 92.1682 99.6094 84.8807Z" fill="white"/>
<path d="M167.812 84.9277C172.134 84.9277 176.466 84.9277 180.787 84.9277V89.8027C187.012 89.559 194.259 89.5777 198.759 94.6215C203.587 99.9559 202.022 107.653 202.303 114.196C206.991 114.281 212.231 115.387 215.128 119.456C218.531 124.256 217.191 130.453 217.462 135.937C217.284 141.159 218.578 147.468 214.266 151.462C209.728 156.365 202.453 154.865 196.5 155.212C194.691 151.546 193.144 147.768 191.55 144.009C195.169 143.906 198.787 144.15 202.397 143.887C202.957 143.853 203.482 143.598 203.854 143.178C204.227 142.758 204.418 142.207 204.384 141.646C204.558 138.186 204.558 134.719 204.384 131.259C204.45 128.812 201.909 127.256 199.697 127.443C193.378 127.35 187.069 127.443 180.75 127.443C180.75 136.687 180.75 145.928 180.75 155.165C176.419 155.165 172.097 155.165 167.766 155.165C167.766 145.921 167.766 136.668 167.766 127.425C163.444 127.425 159.112 127.425 154.791 127.425C154.791 123.084 154.791 118.743 154.791 114.393C159.103 114.393 163.425 114.393 167.737 114.328C167.819 110.578 167.819 106.803 167.737 103.003C164.869 102.956 162 102.918 159.122 102.946C159.122 98.5715 159.122 94.2184 159.122 89.8871C161.991 89.8871 164.859 89.8871 167.728 89.8871L167.812 84.9277ZM180.722 102.909C180.722 106.721 180.75 110.534 180.806 114.346C183.722 114.346 186.647 114.346 189.562 114.346C189.562 110.915 189.787 107.475 189.431 104.034C187.284 101.765 183.534 103.312 180.722 102.909Z" fill="white"/>
<path d="M121.481 89.8223C131.4 89.8223 141.309 89.8223 151.219 89.8223C151.219 94.1723 151.219 98.5316 151.219 102.882C148.491 102.882 145.772 102.882 143.044 102.882C143.044 115.938 143.044 128.991 143.044 142.041C147.216 142.088 151.397 142.041 155.569 142.088C155.569 146.425 155.569 150.769 155.569 155.119C141.056 155.119 126.506 155.119 112.031 155.119C113.991 150.769 115.959 146.419 117.975 142.088C121.866 142.088 125.766 142.088 129.656 142.041C129.656 129 129.656 115.95 129.656 102.91C126.937 102.91 124.228 102.91 121.509 102.91C121.472 98.5348 121.462 94.1723 121.481 89.8223Z" fill="white"/>
<path d="M207.122 91.022C210.403 88.3033 215.85 90.0845 217.078 94.0877C218.644 97.7627 215.709 102.31 211.809 102.666C209.381 102.881 206.944 102.76 204.516 102.75C204.675 98.822 203.484 93.7502 207.122 91.022Z" fill="white"/>
<path d="M25.3124 102.863C29.5968 102.863 33.8718 102.929 38.1468 102.76C37.8843 110.082 37.0687 117.385 36.6093 124.697C36.0655 133.294 34.1155 142.144 28.8655 149.166C26.5218 144.216 24.328 139.2 22.1343 134.166C22.8115 132.34 23.2281 130.427 23.3718 128.485C23.9624 120 24.628 111.413 25.3124 102.863Z" fill="white"/>
<path d="M68.5312 102.863C72.85 102.863 77.1719 102.863 81.4969 102.863C82.1531 111.385 82.8281 119.907 83.4469 128.429C83.5768 130.401 83.9936 132.343 84.6844 134.195C82.4906 139.21 80.2781 144.216 77.9625 149.195C73.1062 142.716 71.0531 134.616 70.3687 126.695C69.6844 118.773 69.1594 110.795 68.5312 102.863Z" fill="white"/>
<path d="M84.6187 154.135C86.5999 149.76 88.5999 145.4 90.6186 141.057C97.303 142.772 104.241 141.797 111.056 142.06C109.106 146.429 107.109 150.779 105.103 155.119C98.2874 154.754 91.2562 156.094 84.6187 154.135Z" fill="white"/>
</g>
<defs>
<clipPath id="clip0_923_227">
<rect width="240" height="240" rx="120" fill="white"/>
</clipPath>
</defs>
</svg>
