<svg width="100" height="100" viewBox="0 0 100 100" fill="none" xmlns="http://www.w3.org/2000/svg">
<rect width="100" height="100" rx="12" fill="#2BBCEF"/>
<path d="M38.9228 35.17C41.0461 31.9693 42.1077 30.369 42.7463 30.014C44.4078 29.0905 46.4983 29.9254 47.0666 31.7394C47.285 32.4366 46.9521 34.3279 46.2865 38.1107L45.7355 41.2418C45.567 42.1994 45.4827 42.6782 45.5239 43.0898C45.6276 44.125 46.2602 45.0325 47.1956 45.488C47.5675 45.6691 48.0459 45.7557 49.0026 45.9289L61.2198 48.1409C65.7008 48.9523 67.9413 49.3579 68.5296 49.8231C70.0644 51.0366 70.0454 53.371 68.4911 54.5595C67.8953 55.015 65.6485 55.3842 61.155 56.1226L42.9168 59.1194C42.4398 59.1978 42.2013 59.237 41.9815 59.309C41.4346 59.4883 40.9508 59.821 40.5879 60.2676C40.442 60.4471 40.3201 60.6559 40.0763 61.0733L35.3242 69.2102C33.9419 71.5771 33.2507 72.7606 32.6881 73.1425C31.2339 74.1296 29.2464 73.6609 28.3866 72.128C28.0539 71.5348 27.9645 70.1673 27.7856 67.4321L27.403 61.5841C27.3674 61.0399 27.3496 60.7678 27.2891 60.5171C27.1383 59.8926 26.7911 59.3329 26.2984 58.9205C26.1006 58.755 25.8647 58.6182 25.3929 58.3447L22.1074 56.44C20.5377 55.53 19.7528 55.075 19.3919 54.606C18.469 53.4069 18.5836 51.7081 19.6592 50.6438C20.0799 50.2277 20.9187 49.8822 22.5964 49.1913L31.115 45.6833C31.4095 45.562 31.5568 45.5013 31.6942 45.4272C32.0353 45.2432 32.3376 44.9948 32.5842 44.6958C32.6836 44.5754 32.7716 44.4426 32.9477 44.1772L38.9228 35.17Z" fill="url(#paint0_linear_899_163)"/>
<path d="M55.397 31.5H70.397" stroke="white" stroke-width="12" stroke-linecap="round"/>
<path d="M45.397 74H60.397" stroke="white" stroke-width="12" stroke-linecap="round"/>
<defs>
<linearGradient id="paint0_linear_899_163" x1="49.6495" y1="19" x2="49.6495" y2="80.6392" gradientUnits="userSpaceOnUse">
<stop offset="0.4375" stop-color="#9DFFED"/>
<stop offset="0.620192" stop-color="#CFFF21"/>
<stop offset="1" stop-color="white"/>
</linearGradient>
</defs>
</svg>
