<svg width="100" height="100" viewBox="0 0 100 100" fill="none" xmlns="http://www.w3.org/2000/svg">
<rect width="100" height="100" rx="50" fill="url(#paint0_linear_909_219)"/>
<path d="M38.9228 32.17C41.0461 28.9693 42.1077 27.369 42.7463 27.014C44.4078 26.0905 46.4983 26.9254 47.0666 28.7394C47.285 29.4366 46.9521 31.3279 46.2865 35.1107L45.7355 38.2418C45.567 39.1994 45.4827 39.6782 45.5239 40.0898C45.6276 41.125 46.2602 42.0325 47.1956 42.488C47.5675 42.6691 48.0459 42.7557 49.0026 42.9289L61.2198 45.1409C65.7008 45.9523 67.9413 46.3579 68.5296 46.8231C70.0644 48.0366 70.0454 50.371 68.4911 51.5595C67.8953 52.015 65.6485 52.3842 61.155 53.1226L42.9168 56.1194C42.4398 56.1978 42.2013 56.237 41.9815 56.309C41.4346 56.4883 40.9508 56.821 40.5879 57.2676C40.442 57.4471 40.3201 57.6559 40.0763 58.0733L35.3242 66.2102C33.9419 68.5771 33.2507 69.7606 32.6881 70.1425C31.2339 71.1296 29.2464 70.6609 28.3866 69.128C28.0539 68.5348 27.9645 67.1673 27.7856 64.4321L27.403 58.5841C27.3674 58.0399 27.3496 57.7678 27.2891 57.5171C27.1383 56.8926 26.7911 56.3329 26.2984 55.9205C26.1006 55.755 25.8647 55.6182 25.3929 55.3447L22.1074 53.44C20.5377 52.53 19.7528 52.075 19.3919 51.606C18.469 50.4069 18.5836 48.7082 19.6592 47.6438C20.0799 47.2277 20.9187 46.8822 22.5964 46.1913L31.115 42.6833C31.4095 42.562 31.5568 42.5013 31.6942 42.4272C32.0353 42.2432 32.3376 41.9948 32.5842 41.6958C32.6836 41.5754 32.7716 41.4426 32.9477 41.1772L38.9228 32.17Z" fill="url(#paint1_linear_909_219)"/>
<path d="M55.397 28.5H70.397" stroke="white" stroke-width="12" stroke-linecap="round"/>
<path d="M45.397 71H60.397" stroke="white" stroke-width="12" stroke-linecap="round"/>
<defs>
<linearGradient id="paint0_linear_909_219" x1="50" y1="0" x2="50" y2="100" gradientUnits="userSpaceOnUse">
<stop stop-color="#55C3F4"/>
<stop offset="1" stop-color="#B1DCE1"/>
</linearGradient>
<linearGradient id="paint1_linear_909_219" x1="49.6495" y1="16" x2="49.6495" y2="77.6392" gradientUnits="userSpaceOnUse">
<stop offset="0.4375" stop-color="#9DFFED"/>
<stop offset="0.620192" stop-color="#CFFF21"/>
<stop offset="1" stop-color="white"/>
</linearGradient>
</defs>
</svg>
