<svg width="24" height="18" viewBox="0 0 24 18" fill="none" xmlns="http://www.w3.org/2000/svg">
<path d="M22.6 5.6C22.6 5.14913 22.4209 4.71673 22.1021 4.39792C21.7833 4.07911 21.3509 3.9 20.9 3.9H17.5L14.95 0.5H8.15L5.6 3.9H2.2C1.74913 3.9 1.31673 4.07911 0.997919 4.39792C0.679107 4.71673 0.5 5.14913 0.5 5.6V15.8C0.5 16.2509 0.679107 16.6833 0.997919 17.0021C1.31673 17.3209 1.74913 17.5 2.2 17.5H20.9C21.3509 17.5 21.7833 17.3209 22.1021 17.0021C22.4209 16.6833 22.6 16.2509 22.6 15.8V5.6Z" fill="#D9D9D9" stroke="#EEFF00" stroke-linecap="round" stroke-linejoin="round"/>
<path d="M11.5501 13.6754C13.6626 13.6754 15.3751 11.9629 15.3751 9.85039C15.3751 7.7379 13.6626 6.02539 11.5501 6.02539C9.43761 6.02539 7.7251 7.7379 7.7251 9.85039C7.7251 11.9629 9.43761 13.6754 11.5501 13.6754Z" fill="#D9D9D9" stroke="#EEFF00" stroke-linecap="round" stroke-linejoin="round"/>
</svg>
