<svg width="42" height="32" viewBox="0 0 42 32" fill="none" xmlns="http://www.w3.org/2000/svg">
<path d="M25.5752 1C33.669 1 40.2305 7.56144 40.2305 15.6553C40.2304 23.7491 33.669 30.3105 25.5752 30.3105H15.6553C7.56148 30.3105 1.00005 23.7491 1 15.6553C1 7.56144 7.56144 1 15.6553 1H25.5752Z" fill="#DBDBDB" stroke="#EEFF00" stroke-width="2"/>
<path d="M12.8462 14.6553C12.2939 14.6553 11.8462 15.103 11.8462 15.6553C11.8462 16.2076 12.2939 16.6553 12.8462 16.6553L12.8462 15.6553L12.8462 14.6553ZM28.5533 16.3624C28.9438 15.9719 28.9438 15.3387 28.5533 14.9482L22.1893 8.58421C21.7988 8.19368 21.1656 8.19368 20.7751 8.58421C20.3846 8.97473 20.3846 9.6079 20.7751 9.99842L26.432 15.6553L20.7751 21.3121C20.3846 21.7027 20.3846 22.3358 20.7751 22.7263C21.1656 23.1169 21.7988 23.1169 22.1893 22.7263L28.5533 16.3624ZM12.8462 15.6553L12.8462 16.6553L27.8462 16.6553L27.8462 15.6553L27.8462 14.6553L12.8462 14.6553L12.8462 15.6553Z" fill="#EEFF00"/>
</svg>
