<svg width="209" height="143" viewBox="0 0 209 143" fill="none" xmlns="http://www.w3.org/2000/svg">
<mask id="path-1-outside-1_632_1029" maskUnits="userSpaceOnUse" x="-0.999512" y="-0.398438" width="210" height="143" fill="black">
<rect fill="white" x="-0.999512" y="-0.398438" width="210" height="143"/>
<path d="M118.012 73.8398L121.168 65.1904C122.108 62.7748 123.461 61.0045 125.229 59.8809C126.997 58.7011 129.014 58.1113 131.279 58.1113C133.599 58.1114 135.643 58.6733 137.411 59.7969C139.234 60.9205 140.587 62.6899 141.471 65.1055L160.861 118.111H150.006L145.531 105.05H116.86L112.219 118.111H101.861L112.603 88.667L108.754 89.8818L101.331 66.3535L78.9907 73.4033L86.4146 96.9316L73.3911 101.041L55.0356 42.8701L68.0591 38.7607L75.1899 61.3574L97.5298 54.3086L90.3989 31.7119L103.422 27.6016L118.012 73.8398ZM56.3032 63.6787L47.6753 66.2764C44.9688 67.0911 42.6611 68.3146 40.7368 69.9355C38.7919 71.574 37.2399 73.4788 36.0728 75.6514C34.9648 77.7966 34.2947 80.1437 34.0688 82.7012L34.0679 82.708C33.8282 85.1994 34.101 87.7705 34.9009 90.4277C35.7007 93.0845 36.9013 95.4085 38.4966 97.4102C40.0935 99.4137 41.9438 100.998 44.0464 102.175L44.4526 102.38C46.498 103.379 48.7057 104.017 51.0806 104.292C53.5637 104.528 56.1549 104.247 58.8608 103.433L67.4888 100.836L70.6157 111.221L61.7466 113.891C57.273 115.237 52.9837 115.724 48.8882 115.33H48.8794L48.8696 115.329C44.8381 114.866 41.0965 113.712 37.6538 111.862L37.644 111.856C34.2571 109.991 31.324 107.537 28.8491 104.5L28.8364 104.485C26.3981 101.375 24.5867 97.8392 23.3979 93.8906C22.2093 89.9421 21.776 86.0191 22.1089 82.1289L22.1099 82.1211C22.4804 78.1695 23.5631 74.4748 25.3589 71.0459L25.3638 71.0361C27.2151 67.5901 29.7087 64.5857 32.8354 62.0254C36.0179 59.3806 39.8572 57.3913 44.3325 56.0439L53.2017 53.374L56.3032 63.6787ZM66.8198 102.082L69.3696 110.552L61.4585 112.933V112.934L69.3696 110.552L66.8198 102.081V102.082ZM185.795 58.3369L185.623 66.2002L170.402 65.8652L169.722 96.7217C169.687 98.3193 170.204 99.7046 171.273 100.877C172.342 102.049 173.722 102.654 175.414 102.691L178.995 102.771L178.821 110.634L175.166 110.554C172.231 110.489 169.684 109.783 167.524 108.437C165.365 107.04 163.689 105.206 162.495 102.932C161.35 100.659 160.808 98.1484 160.869 95.4023L161.524 65.6699L146.303 65.335L146.476 57.4707L185.795 58.3369ZM51.4604 105.327C51.5466 105.333 51.6329 105.337 51.7192 105.342C51.5947 105.335 51.4704 105.326 51.3462 105.317L51.4604 105.327ZM57.7231 104.773C57.8469 104.744 57.9711 104.715 58.0952 104.684L58.1274 104.675C57.9925 104.709 57.8576 104.741 57.7231 104.773ZM38.3579 98.8037C38.4358 98.8928 38.515 98.9802 38.5942 99.0674C38.5084 98.9726 38.4228 98.8771 38.3384 98.7803L38.3579 98.8037ZM131.361 66.875C130.919 66.8751 130.56 67.0439 130.284 67.3809C130.008 67.6617 129.787 68.0552 129.622 68.5605L119.843 96.1172H142.548L133.267 68.5605C133.046 67.999 132.77 67.5777 132.439 67.2969C132.163 67.016 131.803 66.875 131.361 66.875ZM34.2759 91.7393C34.2932 91.7887 34.312 91.8375 34.3296 91.8867C34.3082 91.8269 34.2861 91.7672 34.2651 91.707L34.2759 91.7393ZM33.4321 80.1553C33.399 80.3149 33.3678 80.4754 33.3384 80.6367L33.4331 80.1553C33.4662 79.9956 33.5008 79.8367 33.5376 79.6787L33.4321 80.1553ZM55.0571 63.0098L47.3862 65.3193H47.3872L55.0581 63.0098L52.5317 54.6201L55.0571 63.0098ZM57.5444 44.1758L66.7534 41.2705L73.8833 63.8662V63.8652L66.7534 41.2695L57.5444 44.1758Z"/>
</mask>
<path d="M118.012 73.8398L121.168 65.1904C122.108 62.7748 123.461 61.0045 125.229 59.8809C126.997 58.7011 129.014 58.1113 131.279 58.1113C133.599 58.1114 135.643 58.6733 137.411 59.7969C139.234 60.9205 140.587 62.6899 141.471 65.1055L160.861 118.111H150.006L145.531 105.05H116.86L112.219 118.111H101.861L112.603 88.667L108.754 89.8818L101.331 66.3535L78.9907 73.4033L86.4146 96.9316L73.3911 101.041L55.0356 42.8701L68.0591 38.7607L75.1899 61.3574L97.5298 54.3086L90.3989 31.7119L103.422 27.6016L118.012 73.8398ZM56.3032 63.6787L47.6753 66.2764C44.9688 67.0911 42.6611 68.3146 40.7368 69.9355C38.7919 71.574 37.2399 73.4788 36.0728 75.6514C34.9648 77.7966 34.2947 80.1437 34.0688 82.7012L34.0679 82.708C33.8282 85.1994 34.101 87.7705 34.9009 90.4277C35.7007 93.0845 36.9013 95.4085 38.4966 97.4102C40.0935 99.4137 41.9438 100.998 44.0464 102.175L44.4526 102.38C46.498 103.379 48.7057 104.017 51.0806 104.292C53.5637 104.528 56.1549 104.247 58.8608 103.433L67.4888 100.836L70.6157 111.221L61.7466 113.891C57.273 115.237 52.9837 115.724 48.8882 115.33H48.8794L48.8696 115.329C44.8381 114.866 41.0965 113.712 37.6538 111.862L37.644 111.856C34.2571 109.991 31.324 107.537 28.8491 104.5L28.8364 104.485C26.3981 101.375 24.5867 97.8392 23.3979 93.8906C22.2093 89.9421 21.776 86.0191 22.1089 82.1289L22.1099 82.1211C22.4804 78.1695 23.5631 74.4748 25.3589 71.0459L25.3638 71.0361C27.2151 67.5901 29.7087 64.5857 32.8354 62.0254C36.0179 59.3806 39.8572 57.3913 44.3325 56.0439L53.2017 53.374L56.3032 63.6787ZM66.8198 102.082L69.3696 110.552L61.4585 112.933V112.934L69.3696 110.552L66.8198 102.081V102.082ZM185.795 58.3369L185.623 66.2002L170.402 65.8652L169.722 96.7217C169.687 98.3193 170.204 99.7046 171.273 100.877C172.342 102.049 173.722 102.654 175.414 102.691L178.995 102.771L178.821 110.634L175.166 110.554C172.231 110.489 169.684 109.783 167.524 108.437C165.365 107.04 163.689 105.206 162.495 102.932C161.35 100.659 160.808 98.1484 160.869 95.4023L161.524 65.6699L146.303 65.335L146.476 57.4707L185.795 58.3369ZM51.4604 105.327C51.5466 105.333 51.6329 105.337 51.7192 105.342C51.5947 105.335 51.4704 105.326 51.3462 105.317L51.4604 105.327ZM57.7231 104.773C57.8469 104.744 57.9711 104.715 58.0952 104.684L58.1274 104.675C57.9925 104.709 57.8576 104.741 57.7231 104.773ZM38.3579 98.8037C38.4358 98.8928 38.515 98.9802 38.5942 99.0674C38.5084 98.9726 38.4228 98.8771 38.3384 98.7803L38.3579 98.8037ZM131.361 66.875C130.919 66.8751 130.56 67.0439 130.284 67.3809C130.008 67.6617 129.787 68.0552 129.622 68.5605L119.843 96.1172H142.548L133.267 68.5605C133.046 67.999 132.77 67.5777 132.439 67.2969C132.163 67.016 131.803 66.875 131.361 66.875ZM34.2759 91.7393C34.2932 91.7887 34.312 91.8375 34.3296 91.8867C34.3082 91.8269 34.2861 91.7672 34.2651 91.707L34.2759 91.7393ZM33.4321 80.1553C33.399 80.3149 33.3678 80.4754 33.3384 80.6367L33.4331 80.1553C33.4662 79.9956 33.5008 79.8367 33.5376 79.6787L33.4321 80.1553ZM55.0571 63.0098L47.3862 65.3193H47.3872L55.0581 63.0098L52.5317 54.6201L55.0571 63.0098ZM57.5444 44.1758L66.7534 41.2705L73.8833 63.8662V63.8652L66.7534 41.2695L57.5444 44.1758Z" fill="black"/>
<path d="M118.012 73.8398L97.0319 80.4599L116.501 142.16L138.679 81.3814L118.012 73.8398ZM121.168 65.1904L100.663 57.2189L100.58 57.433L100.501 57.6489L121.168 65.1904ZM125.229 59.8809L137.03 78.4477L137.237 78.3161L137.441 78.18L125.229 59.8809ZM131.279 58.1113L131.279 36.1113H131.279V58.1113ZM137.411 59.7969L125.61 78.3639L125.738 78.4454L125.867 78.5251L137.411 59.7969ZM141.471 65.1055L162.132 57.5476L162.132 57.5458L141.471 65.1055ZM160.861 118.111V140.111H192.334L181.522 110.553L160.861 118.111ZM150.006 118.111L129.194 125.243L134.289 140.111H150.006V118.111ZM145.531 105.05L166.343 97.9184L161.248 83.0498H145.531V105.05ZM116.86 105.05V83.0498H101.329L96.1294 97.6845L116.86 105.05ZM112.219 118.111V140.111H127.75L132.95 125.477L112.219 118.111ZM101.861 118.111L81.1933 110.571L70.4162 140.111H101.861V118.111ZM112.603 88.667L133.271 96.2071L148.581 54.2402L105.981 67.6874L112.603 88.667ZM108.754 89.8818L87.774 96.5017L94.3947 117.485L115.377 110.861L108.754 89.8818ZM101.331 66.3535L122.311 59.7336L115.691 38.7524L94.7098 45.3734L101.331 66.3535ZM78.9907 73.4033L72.37 52.4232L51.3907 59.0436L58.0103 80.0232L78.9907 73.4033ZM86.4146 96.9316L93.0346 117.912L114.015 111.292L107.395 90.3118L86.4146 96.9316ZM73.3911 101.041L52.4108 107.661L59.031 128.641L80.0112 122.021L73.3911 101.041ZM55.0356 42.8701L48.4156 21.8898L27.4351 28.5099L34.0553 49.4903L55.0356 42.8701ZM68.0591 38.7607L89.0392 32.14L82.4187 11.1605L61.439 17.7804L68.0591 38.7607ZM75.1899 61.3574L54.2098 67.9781L60.8303 88.9574L81.8098 82.3378L75.1899 61.3574ZM97.5298 54.3086L104.15 75.289L125.131 68.6688L118.51 47.6879L97.5298 54.3086ZM90.3989 31.7119L83.7774 10.732L62.7983 17.3533L69.4188 38.3326L90.3989 31.7119ZM103.422 27.6016L124.403 20.9815L117.782 -0.000284195L96.8009 6.62167L103.422 27.6016ZM56.3032 63.6787L62.6457 84.7446L83.7099 78.4027L77.3697 57.338L56.3032 63.6787ZM47.6753 66.2764L54.017 87.3425L54.0177 87.3423L47.6753 66.2764ZM40.7368 69.9355L26.5633 53.1096L26.5627 53.1101L40.7368 69.9355ZM36.0728 75.6514L16.6925 65.2397L16.6078 65.3972L16.5257 65.5561L36.0728 75.6514ZM34.0688 82.7012L55.8477 85.8124L55.9315 85.2264L55.9835 84.6368L34.0688 82.7012ZM34.0679 82.708L12.289 79.5967L12.2174 80.0976L12.169 80.6013L34.0679 82.708ZM34.9009 90.4277L13.8346 96.7692L13.8348 96.7698L34.9009 90.4277ZM38.4966 97.4102L21.2921 111.122L21.2925 111.122L38.4966 97.4102ZM44.0464 102.175L33.305 121.374L33.7139 121.603L34.1322 121.814L44.0464 102.175ZM44.4526 102.38L34.5385 122.019L34.666 122.084L34.7943 122.146L44.4526 102.38ZM51.0806 104.292L48.5509 126.146L48.7743 126.172L48.9982 126.193L51.0806 104.292ZM58.8608 103.433L52.5206 82.366L52.5191 82.3665L58.8608 103.433ZM67.4888 100.836L88.5545 94.4928L82.2123 73.43L61.1485 79.7693L67.4888 100.836ZM70.6157 111.221L76.9574 132.287L98.025 125.945L91.6815 104.878L70.6157 111.221ZM61.7466 113.891L68.088 134.957L68.0882 134.957L61.7466 113.891ZM48.8882 115.33L50.9947 93.4312L49.9439 93.3301H48.8882V115.33ZM48.8794 115.33L46.6903 137.221L47.7821 137.33H48.8794V115.33ZM48.8696 115.329L46.3595 137.185L46.5199 137.204L46.6805 137.22L48.8696 115.329ZM37.6538 111.862L26.3349 130.727L26.7825 130.996L27.2423 131.243L37.6538 111.862ZM37.644 111.856L48.9629 92.9916L48.615 92.7828L48.2595 92.587L37.644 111.856ZM28.8491 104.5L45.9026 90.6011L45.6923 90.3431L45.4743 90.0915L28.8491 104.5ZM28.8364 104.485L11.5217 118.057L11.8562 118.484L12.2113 118.894L28.8364 104.485ZM23.3979 93.8906L2.33175 100.232L2.33187 100.233L23.3979 93.8906ZM22.1089 82.1289L0.278774 79.4001L0.225554 79.8259L0.188976 80.2534L22.1089 82.1289ZM22.1099 82.1211L43.94 84.8499L43.9821 84.5129L44.0138 84.1747L22.1099 82.1211ZM25.3589 71.0459L44.8478 81.2528L44.9438 81.0696L45.0363 80.8846L25.3589 71.0459ZM25.3638 71.0361L5.98352 60.6243L5.83074 60.9087L5.68637 61.1974L25.3638 71.0361ZM32.8354 62.0254L46.7734 79.0469L46.8352 78.9963L46.8966 78.9453L32.8354 62.0254ZM44.3325 56.0439L37.9909 34.9778L37.9905 34.9779L44.3325 56.0439ZM53.2017 53.374L74.2681 47.0333L67.9271 25.9659L46.86 32.3079L53.2017 53.374ZM66.8198 102.082H44.8198V105.322L45.7537 108.424L66.8198 102.082ZM69.3696 110.552L75.712 131.618L96.7768 125.276L90.4359 104.211L69.3696 110.552ZM61.4585 112.933L55.1185 91.866L39.4585 96.5788V112.933H61.4585ZM61.4585 112.934H39.4585V142.533L67.8009 134L61.4585 112.934ZM66.8198 102.081L87.8861 95.7398L44.8198 102.081H66.8198ZM185.795 58.3369L207.79 58.8204L208.274 36.8268L186.28 36.3423L185.795 58.3369ZM185.623 66.2002L185.139 88.1949L207.134 88.6789L207.617 66.6837L185.623 66.2002ZM170.402 65.8652L170.886 43.8706L148.892 43.3865L148.407 65.3807L170.402 65.8652ZM169.722 96.7217L147.728 96.2372L147.727 96.2381L169.722 96.7217ZM171.273 100.877L155.016 115.699L155.016 115.7L171.273 100.877ZM175.414 102.691L175.899 80.6968L175.898 80.6967L175.414 102.691ZM178.995 102.771L200.989 103.257L201.475 81.2617L179.48 80.7759L178.995 102.771ZM178.821 110.634L178.339 132.629L200.329 133.11L200.815 111.12L178.821 110.634ZM175.166 110.554L174.681 132.548L174.684 132.548L175.166 110.554ZM167.524 108.437L155.576 126.909L155.73 127.009L155.887 127.107L167.524 108.437ZM162.495 102.932L142.844 112.824L142.929 112.992L143.016 113.159L162.495 102.932ZM160.869 95.4023L138.874 94.9176L138.874 94.9178L160.869 95.4023ZM161.524 65.6699L183.519 66.1547L184.003 44.1593L162.008 43.6752L161.524 65.6699ZM146.303 65.335L124.309 64.8515L123.825 86.8456L145.819 87.3296L146.303 65.335ZM146.476 57.4707L146.961 35.476L124.965 34.9915L124.481 56.9873L146.476 57.4707ZM51.4604 105.327L49.5869 127.247L49.7589 127.262L49.9311 127.274L51.4604 105.327ZM51.7192 105.342L50.4908 127.307L52.9485 83.3762L51.7192 105.342ZM51.3462 105.317L52.9374 83.375L49.4727 127.237L51.3462 105.317ZM58.0952 104.684L63.5187 126.005L63.7016 125.958L63.8838 125.908L58.0952 104.684ZM58.1274 104.675L63.916 125.9L52.6749 83.3612L58.1274 104.675ZM38.3579 98.8037L21.457 112.888L21.625 113.089L21.7977 113.287L38.3579 98.8037ZM38.5942 99.0674L22.3132 113.864L54.8944 84.2922L38.5942 99.0674ZM38.3384 98.7803L54.9195 84.3212L21.4375 112.864L38.3384 98.7803ZM131.361 66.875V44.875H131.355L131.361 66.875ZM130.284 67.3809L145.972 82.8046L146.669 82.0948L147.3 81.325L130.284 67.3809ZM129.622 68.5605L150.355 75.9177L150.444 75.6671L150.527 75.4145L129.622 68.5605ZM119.843 96.1172L99.1099 88.7601L88.6927 118.117H119.843V96.1172ZM142.548 96.1172V118.117H173.172L163.398 89.095L142.548 96.1172ZM133.267 68.5605L154.116 61.5384L153.941 61.0179L153.74 60.5068L133.267 68.5605ZM132.439 67.2969L116.752 82.722L117.451 83.4328L118.212 84.0775L132.439 67.2969ZM34.2759 91.7393L13.4048 98.6963L13.4558 98.8491L13.5089 99.0011L34.2759 91.7393ZM34.2651 91.707L55.0424 84.4748L13.3941 98.664L34.2651 91.707ZM33.4321 80.1553L11.9519 75.4014L11.9205 75.5433L11.891 75.6855L33.4321 80.1553ZM33.3384 80.6367L11.6967 76.6823L54.9245 84.8839L33.3384 80.6367ZM33.4331 80.1553L11.8921 75.6849L11.8689 75.7964L11.847 75.9081L33.4331 80.1553ZM33.5376 79.6787L55.0178 84.4325L12.1106 74.6902L33.5376 79.6787ZM55.0571 63.0098L61.3997 84.0757L82.4642 77.7335L76.1234 56.6685L55.0571 63.0098ZM47.3862 65.3193L41.0437 44.2534L47.3862 87.3193V65.3193ZM47.3872 65.3193V87.3193H50.6273L53.7298 86.3852L47.3872 65.3193ZM55.0581 63.0098L61.4007 84.0757L82.4675 77.7328L76.1237 56.6663L55.0581 63.0098ZM52.5317 54.6201L73.5974 48.2766L31.4654 60.9613L52.5317 54.6201ZM57.5444 44.1758L50.9234 23.1958L64.1635 65.1564L57.5444 44.1758ZM66.7534 41.2705L87.7337 34.6503L81.1139 13.6712L60.1344 20.2898L66.7534 41.2705ZM73.8833 63.8662L52.903 70.4864L95.8833 63.8662H73.8833ZM73.8833 63.8652H95.8833V60.4766L94.8636 57.2451L73.8833 63.8652ZM66.7534 41.2695L87.7337 34.6494L81.1133 13.6682L60.1324 20.2895L66.7534 41.2695ZM118.012 73.8398L138.679 81.3814L141.835 72.732L121.168 65.1904L100.501 57.6489L97.3452 66.2983L118.012 73.8398ZM121.168 65.1904L141.673 73.162C141.324 74.0602 140.077 76.511 137.03 78.4477L125.229 59.8809L113.428 41.3141C106.845 45.4979 102.891 51.4893 100.663 57.2189L121.168 65.1904ZM125.229 59.8809L137.441 78.18C136.489 78.8158 135.402 79.3301 134.243 79.6691C133.095 80.0049 132.074 80.1113 131.279 80.1113V58.1113V36.1113C124.969 36.1113 118.644 37.8263 113.017 41.5817L125.229 59.8809ZM131.279 58.1113L131.278 80.1113C129.883 80.1113 127.742 79.7194 125.61 78.3639L137.411 59.7969L149.212 41.2298C143.544 37.6273 137.314 36.1115 131.279 36.1113L131.279 58.1113ZM137.411 59.7969L125.867 78.5251C122.686 76.5643 121.273 73.9277 120.811 72.6651L141.471 65.1055L162.132 57.5458C159.902 51.4521 155.781 45.2766 148.954 41.0686L137.411 59.7969ZM141.471 65.1055L120.81 72.6633L140.2 125.669L160.861 118.111L181.522 110.553L162.132 57.5476L141.471 65.1055ZM160.861 118.111V96.1113H150.006V118.111V140.111H160.861V118.111ZM150.006 118.111L170.818 110.98L166.343 97.9184L145.531 105.05L124.719 112.181L129.194 125.243L150.006 118.111ZM145.531 105.05V83.0498H116.86V105.05V127.05H145.531V105.05ZM116.86 105.05L96.1294 97.6845L91.4888 110.746L112.219 118.111L132.95 125.477L137.59 112.415L116.86 105.05ZM112.219 118.111V96.1113H101.861V118.111V140.111H112.219V118.111ZM101.861 118.111L122.528 125.651L133.271 96.2071L112.603 88.667L91.9355 81.1269L81.1933 110.571L101.861 118.111ZM112.603 88.667L105.981 67.6874L102.132 68.9022L108.754 89.8818L115.377 110.861L119.225 109.647L112.603 88.667ZM108.754 89.8818L129.735 83.2619L122.311 59.7336L101.331 66.3535L80.3502 72.9734L87.774 96.5017L108.754 89.8818ZM101.331 66.3535L94.7098 45.3734L72.37 52.4232L78.9907 73.4033L85.6114 94.3835L107.951 87.3337L101.331 66.3535ZM78.9907 73.4033L58.0103 80.0232L65.4342 103.552L86.4146 96.9316L107.395 90.3118L99.9711 66.7834L78.9907 73.4033ZM86.4146 96.9316L79.7945 75.9513L66.771 80.0607L73.3911 101.041L80.0112 122.021L93.0346 117.912L86.4146 96.9316ZM73.3911 101.041L94.3714 94.4208L76.0159 36.2499L55.0356 42.8701L34.0553 49.4903L52.4108 107.661L73.3911 101.041ZM55.0356 42.8701L61.6557 63.8505L74.6792 59.7411L68.0591 38.7607L61.439 17.7804L48.4156 21.8898L55.0356 42.8701ZM68.0591 38.7607L47.0789 45.3815L54.2098 67.9781L75.1899 61.3574L96.1701 54.7367L89.0392 32.14L68.0591 38.7607ZM75.1899 61.3574L81.8098 82.3378L104.15 75.289L97.5298 54.3086L90.9099 33.3282L68.5701 40.377L75.1899 61.3574ZM97.5298 54.3086L118.51 47.6879L111.379 25.0912L90.3989 31.7119L69.4188 38.3326L76.5497 60.9293L97.5298 54.3086ZM90.3989 31.7119L97.0204 52.6918L110.044 48.5815L103.422 27.6016L96.8009 6.62167L83.7774 10.732L90.3989 31.7119ZM103.422 27.6016L82.442 34.2216L97.0319 80.4599L118.012 73.8398L138.993 67.2198L124.403 20.9815L103.422 27.6016ZM56.3032 63.6787L49.9608 42.6128L41.3329 45.2104L47.6753 66.2764L54.0177 87.3423L62.6457 84.7446L56.3032 63.6787ZM47.6753 66.2764L41.3335 45.2102C36.0596 46.7979 31.0135 49.361 26.5633 53.1096L40.7368 69.9355L54.9103 86.7615C54.6338 86.9944 54.378 87.1563 54.1859 87.2577C53.9989 87.3565 53.9251 87.3702 54.017 87.3425L47.6753 66.2764ZM40.7368 69.9355L26.5627 53.1101C22.5477 56.4925 19.2079 60.5575 16.6925 65.2397L36.0728 75.6514L55.4531 86.0631C55.3766 86.2054 55.2768 86.357 55.161 86.4989C55.0461 86.6398 54.952 86.7263 54.9109 86.761L40.7368 69.9355ZM36.0728 75.6514L16.5257 65.5561C14.0358 70.3773 12.6178 75.5164 12.1542 80.7656L34.0688 82.7012L55.9835 84.6368C55.9801 84.6762 55.963 84.8217 55.9 85.043C55.8363 85.267 55.7423 85.5094 55.6198 85.7466L36.0728 75.6514ZM34.0688 82.7012L12.29 79.5899L12.289 79.5967L34.0679 82.708L55.8468 85.8193L55.8477 85.8124L34.0688 82.7012ZM34.0679 82.708L12.169 80.6013C11.6311 86.1922 12.2889 91.6343 13.8346 96.7692L34.9009 90.4277L55.9671 84.0863C55.9338 83.9758 55.9524 84.0042 55.9686 84.1552C55.9853 84.3106 55.9933 84.5388 55.9668 84.8148L34.0679 82.708ZM34.9009 90.4277L13.8348 96.7698C15.382 101.909 17.8285 106.776 21.2921 111.122L38.4966 97.4102L55.7011 83.6987C55.82 83.8479 55.9046 83.9862 55.9561 84.0861C56.006 84.183 55.9999 84.1953 55.9669 84.0857L34.9009 90.4277ZM38.4966 97.4102L21.2925 111.122C24.5701 115.235 28.58 118.731 33.305 121.374L44.0464 102.175L54.7878 82.9753C55.0204 83.1054 55.2318 83.2553 55.4077 83.4063C55.5815 83.5554 55.6758 83.6669 55.7006 83.6981L38.4966 97.4102ZM44.0464 102.175L34.1322 121.814L34.5385 122.019L44.4526 102.38L54.3668 82.7404L53.9606 82.5353L44.0464 102.175ZM44.4526 102.38L34.7943 122.146C39.1838 124.291 43.8155 125.598 48.5509 126.146L51.0806 104.292L53.6103 82.4379C53.5845 82.4349 53.6355 82.4392 53.7432 82.4703C53.8524 82.5018 53.9804 82.5495 54.111 82.6133L44.4526 102.38ZM51.0806 104.292L48.9982 126.193C54.6265 126.728 60.0835 126.04 65.2026 124.499L58.8608 103.433L52.5191 82.3665C52.356 82.4156 52.3496 82.4027 52.4829 82.3881C52.6214 82.3729 52.8571 82.3617 53.1629 82.3908L51.0806 104.292ZM58.8608 103.433L65.2011 124.499L73.829 121.903L67.4888 100.836L61.1485 79.7693L52.5206 82.366L58.8608 103.433ZM67.4888 100.836L46.423 107.179L49.55 117.564L70.6157 111.221L91.6815 104.878L88.5545 94.4928L67.4888 100.836ZM70.6157 111.221L64.2741 90.1545L55.4049 92.8245L61.7466 113.891L68.0882 134.957L76.9574 132.287L70.6157 111.221ZM61.7466 113.891L55.4052 92.8244C53.2636 93.469 51.8558 93.514 50.9947 93.4312L48.8882 115.33L46.7816 137.229C54.1116 137.934 61.2825 137.005 68.088 134.957L61.7466 113.891ZM48.8882 115.33V93.3301H48.8794V115.33V137.33H48.8882V115.33ZM48.8794 115.33L51.0685 93.4393L51.0587 93.4383L48.8696 115.329L46.6805 137.22L46.6903 137.221L48.8794 115.33ZM48.8696 115.329L51.3797 93.4728C49.9947 93.3137 48.9502 92.9573 48.0653 92.4819L37.6538 111.862L27.2423 131.243C33.2428 134.466 39.6815 136.419 46.3595 137.185L48.8696 115.329ZM37.6538 111.862L48.9727 92.9975L48.9629 92.9916L37.644 111.856L26.3251 130.721L26.3349 130.727L37.6538 111.862ZM37.644 111.856L48.2595 92.587C47.3783 92.1015 46.6212 91.4828 45.9026 90.6011L28.8491 104.5L11.7956 118.399C16.0267 123.59 21.1359 127.88 27.0285 131.126L37.644 111.856ZM28.8491 104.5L45.4743 90.0915L45.4616 90.0769L28.8364 104.485L12.2113 118.894L12.224 118.908L28.8491 104.5ZM28.8364 104.485L46.1512 90.9134C45.4853 90.0638 44.9029 89.0066 44.464 87.5487L23.3979 93.8906L2.33187 100.233C4.27041 106.672 7.31083 112.685 11.5217 118.057L28.8364 104.485ZM23.3979 93.8906L44.4642 87.5491C44.0253 86.0913 43.9475 84.9548 44.0288 84.0044L22.1089 82.1289L0.188976 80.2534C-0.395405 87.0833 0.393373 93.793 2.33175 100.232L23.3979 93.8906ZM22.1089 82.1289L43.939 84.8577L43.94 84.8499L22.1099 82.1211L0.279751 79.3923L0.278774 79.4001L22.1089 82.1289ZM22.1099 82.1211L44.0138 84.1747C44.1247 82.9917 44.4166 82.0762 44.8478 81.2528L25.3589 71.0459L5.86994 60.839C2.70961 66.8733 0.835978 73.3473 0.205923 80.0675L22.1099 82.1211ZM25.3589 71.0459L45.0363 80.8846L45.0412 80.8748L25.3638 71.0361L5.68637 61.1974L5.68149 61.2072L25.3589 71.0459ZM25.3638 71.0361L44.744 81.4479C45.1815 80.6337 45.7926 79.8501 46.7734 79.0469L32.8354 62.0254L18.8975 45.0039C13.6248 49.3214 9.24874 54.5465 5.98352 60.6243L25.3638 71.0361ZM32.8354 62.0254L46.8966 78.9453C47.5076 78.4376 48.6215 77.7281 50.6746 77.11L44.3325 56.0439L37.9905 34.9779C31.0928 37.0545 24.5283 40.3237 18.7743 45.1055L32.8354 62.0254ZM44.3325 56.0439L50.6742 77.1101L59.5433 74.4402L53.2017 53.374L46.86 32.3079L37.9909 34.9778L44.3325 56.0439ZM53.2017 53.374L32.1352 59.7147L35.2368 70.0194L56.3032 63.6787L77.3697 57.338L74.2681 47.0333L53.2017 53.374ZM66.8198 102.082L45.7537 108.424L48.3035 116.894L69.3696 110.552L90.4357 104.21L87.8859 95.7401L66.8198 102.082ZM69.3696 110.552L63.0296 89.4851L55.1185 91.866L61.4585 112.933L67.7985 133.999L75.7097 131.618L69.3696 110.552ZM61.4585 112.933H39.4585V112.934H61.4585H83.4585V112.933H61.4585ZM61.4585 112.934L67.8009 134L75.712 131.618L69.3696 110.552L63.0272 89.4858L55.1161 91.8677L61.4585 112.934ZM69.3696 110.552L90.4359 104.211L87.8861 95.7398L66.8198 102.081L45.7535 108.422L48.3033 116.893L69.3696 110.552ZM66.8198 102.081H44.8198V102.082H66.8198H88.8198V102.081H66.8198ZM185.795 58.3369L163.801 57.8534L163.628 65.7167L185.623 66.2002L207.617 66.6837L207.79 58.8204L185.795 58.3369ZM185.623 66.2002L186.107 44.2055L170.886 43.8706L170.402 65.8652L169.918 87.8599L185.139 88.1949L185.623 66.2002ZM170.402 65.8652L148.407 65.3807L147.728 96.2372L169.722 96.7217L191.717 97.2062L192.397 66.3497L170.402 65.8652ZM169.722 96.7217L147.727 96.2381C147.569 103.44 150.109 110.318 155.016 115.699L171.273 100.877L187.53 86.0547C188.75 87.3921 189.901 89.1387 190.695 91.2664C191.488 93.3913 191.756 95.4425 191.717 97.2053L169.722 96.7217ZM171.273 100.877L155.016 115.7C160.432 121.639 167.668 124.526 174.929 124.686L175.414 102.691L175.898 80.6967C177.576 80.7337 179.691 81.0743 181.939 82.0594C184.218 83.0579 186.1 84.4861 187.53 86.0543L171.273 100.877ZM175.414 102.691L174.928 124.686L178.509 124.765L178.995 102.771L179.48 80.7759L175.899 80.6968L175.414 102.691ZM178.995 102.771L157 102.284L156.826 110.148L178.821 110.634L200.815 111.12L200.989 103.257L178.995 102.771ZM178.821 110.634L179.303 88.6391L175.647 88.559L175.166 110.554L174.684 132.548L178.339 132.629L178.821 110.634ZM175.166 110.554L175.65 88.559C175.808 88.5625 176.266 88.5908 176.929 88.7747C177.61 88.9634 178.385 89.2823 179.161 89.7664L167.524 108.437L155.887 127.107C161.881 130.843 168.408 132.41 174.681 132.548L175.166 110.554ZM167.524 108.437L179.472 89.9636C179.918 90.2523 180.414 90.6538 180.889 91.1738C181.364 91.6941 181.722 92.2269 181.973 92.7043L162.495 102.932L143.016 113.159C145.973 118.789 150.245 123.462 155.576 126.909L167.524 108.437ZM162.495 102.932L182.145 93.0397C182.418 93.5817 182.615 94.1507 182.734 94.7001C182.851 95.2421 182.868 95.6559 182.863 95.8868L160.869 95.4023L138.874 94.9178C138.741 100.971 139.955 107.085 142.844 112.824L162.495 102.932ZM160.869 95.4023L182.863 95.8871L183.519 66.1547L161.524 65.6699L139.529 65.1852L138.874 94.9176L160.869 95.4023ZM161.524 65.6699L162.008 43.6752L146.787 43.3403L146.303 65.335L145.819 87.3296L161.04 87.6646L161.524 65.6699ZM146.303 65.335L168.298 65.8184L168.471 57.9541L146.476 57.4707L124.481 56.9873L124.309 64.8515L146.303 65.335ZM146.476 57.4707L145.992 79.4654L185.311 80.3316L185.795 58.3369L186.28 36.3423L146.961 35.476L146.476 57.4707ZM51.4604 105.327L49.9311 127.274C50.1504 127.289 50.3312 127.299 50.4144 127.303C50.452 127.306 50.4996 127.308 50.5032 127.308C50.5185 127.309 50.5086 127.308 50.49 127.307L51.7192 105.342L52.9485 83.3762C52.9165 83.3744 52.888 83.3728 52.8644 83.3716C52.8412 83.3703 52.8206 83.3692 52.8058 83.3685C52.7984 83.3681 52.7914 83.3677 52.7861 83.3674C52.7803 83.3671 52.7764 83.3669 52.7727 83.3667C52.7654 83.3663 52.7639 83.3663 52.7651 83.3663C52.7665 83.3664 52.773 83.3668 52.783 83.3673C52.793 83.3679 52.8078 83.3687 52.8264 83.3698C52.8629 83.372 52.9193 83.3755 52.9898 83.3804L51.4604 105.327ZM51.7192 105.342L52.9477 83.3761C52.9722 83.3775 52.9851 83.3784 52.9828 83.3782C52.9818 83.3781 52.9779 83.3779 52.9702 83.3773C52.9625 83.3768 52.9519 83.376 52.9374 83.375L51.3462 105.317L49.755 127.26C49.9402 127.273 50.1974 127.291 50.4908 127.307L51.7192 105.342ZM51.3462 105.317L49.4727 127.237L49.5869 127.247L51.4604 105.327L53.334 83.4071L53.2197 83.3973L51.3462 105.317ZM57.7231 104.773L62.8092 126.177C62.8279 126.173 62.8419 126.17 62.8837 126.16C62.9181 126.152 62.9698 126.139 63.0271 126.126C63.1407 126.099 63.3148 126.056 63.5187 126.005L58.0952 104.684L52.6718 83.3626C52.7136 83.3519 52.7458 83.344 52.7652 83.3392C52.7843 83.3345 52.7945 83.3321 52.7909 83.333C52.7894 83.3333 52.7855 83.3343 52.7782 83.336C52.7708 83.3377 52.7615 83.3399 52.7484 83.3431C52.7418 83.3446 52.735 83.3462 52.727 83.3481C52.7193 83.3499 52.7105 83.352 52.7013 83.3542C52.6832 83.3585 52.661 83.3637 52.6371 83.3694L57.7231 104.773ZM58.0952 104.684L63.8838 125.908L63.916 125.9L58.1274 104.675L52.3389 83.45L52.3066 83.4588L58.0952 104.684ZM58.1274 104.675L52.6749 83.3612C52.699 83.355 52.717 83.3505 52.7275 83.3479C52.7379 83.3454 52.7423 83.3443 52.7389 83.3451C52.7353 83.346 52.7263 83.3482 52.7089 83.3523C52.6906 83.3567 52.6692 83.3618 52.637 83.3694L57.7231 104.773L62.8093 126.177C62.9295 126.149 63.2376 126.076 63.58 125.988L58.1274 104.675ZM38.3579 98.8037L21.7977 113.287C22.0284 113.551 22.2348 113.777 22.3132 113.864L38.5942 99.0674L54.8753 84.2712C54.8587 84.2529 54.849 84.2423 54.8422 84.2348C54.8358 84.2277 54.8353 84.227 54.8386 84.2308C54.8445 84.2374 54.8741 84.2703 54.9181 84.3206L38.3579 98.8037ZM38.5942 99.0674L54.8944 84.2922C54.8811 84.2775 54.8778 84.2739 54.8816 84.2781C54.8856 84.2826 54.899 84.2976 54.9195 84.3212L38.3384 98.7803L21.7572 113.239C21.965 113.478 22.1511 113.685 22.2941 113.843L38.5942 99.0674ZM38.3384 98.7803L21.4375 112.864L21.457 112.888L38.3579 98.8037L55.2588 84.7197L55.2392 84.6962L38.3384 98.7803ZM131.361 66.875L131.355 44.875C124.427 44.8768 117.786 47.922 113.267 53.4367L130.284 67.3809L147.3 81.325C145.566 83.4407 143.182 85.4733 140.113 86.9147C137.052 88.3521 134.009 88.8743 131.367 88.875L131.361 66.875ZM130.284 67.3809L114.596 51.9571C111.248 55.3624 109.578 59.0796 108.716 61.7066L129.622 68.5605L150.527 75.4145C149.997 77.0307 148.767 79.961 145.972 82.8046L130.284 67.3809ZM129.622 68.5605L108.888 61.2034L99.1099 88.7601L119.843 96.1172L140.577 103.474L150.355 75.9177L129.622 68.5605ZM119.843 96.1172V118.117H142.548V96.1172V74.1172H119.843V96.1172ZM142.548 96.1172L163.398 89.095L154.116 61.5384L133.267 68.5605L112.418 75.5827L121.699 103.139L142.548 96.1172ZM133.267 68.5605L153.74 60.5068C152.682 57.817 150.639 53.8842 146.666 50.5162L132.439 67.2969L118.212 84.0775C114.902 81.2713 113.411 78.1811 112.794 76.6143L133.267 68.5605ZM132.439 67.2969L148.125 51.8718C143.197 46.8597 136.922 44.875 131.361 44.875V66.875V88.875C129.227 88.875 126.658 88.5297 123.944 87.4674C121.18 86.3857 118.74 84.7436 116.752 82.722L132.439 67.2969ZM34.2759 91.7393L13.5089 99.0011C13.5515 99.1228 13.5882 99.2247 13.6143 99.2963C13.6394 99.3654 13.6605 99.4223 13.6676 99.4417C13.6696 99.4472 13.6716 99.4525 13.6725 99.4548C13.673 99.4563 13.6733 99.4572 13.6736 99.4579C13.6738 99.4585 13.6739 99.4587 13.6739 99.4586C13.6738 99.4585 13.673 99.4564 13.6718 99.4531C13.6706 99.4498 13.6687 99.4447 13.6664 99.4382C13.6577 99.4147 13.6372 99.3588 13.6109 99.2852L34.3296 91.8867L55.0482 84.4882C55.0304 84.4381 55.0143 84.3936 55.0006 84.3561C54.987 84.3187 54.9752 84.2864 54.9661 84.2615C54.9615 84.2489 54.9573 84.2377 54.9538 84.2283C54.9504 84.2188 54.9473 84.2106 54.945 84.2043C54.9427 84.1982 54.9407 84.1927 54.9396 84.1897C54.9382 84.1859 54.9379 84.1851 54.9376 84.1844C54.9375 84.184 54.9381 84.1856 54.9391 84.1884C54.9401 84.1912 54.9418 84.1958 54.944 84.2017C54.9482 84.2132 54.9552 84.2322 54.9639 84.2562C54.9727 84.2803 54.984 84.3115 54.9971 84.3481C55.0102 84.3847 55.0256 84.4282 55.0428 84.4774L34.2759 91.7393ZM34.3296 91.8867L55.0483 84.4883C55.0381 84.4598 55.0289 84.4342 55.0212 84.4127C55.0135 84.3914 55.0067 84.3727 55.0015 84.3583C54.9989 84.3511 54.9965 84.3445 54.9946 84.3391C54.9926 84.3337 54.9908 84.3286 54.9895 84.3251C54.988 84.321 54.9871 84.3186 54.9863 84.3163C54.9856 84.3142 54.9852 84.3132 54.9851 84.3129C54.9848 84.312 54.986 84.3155 54.9883 84.3217C54.9905 84.328 54.9942 84.3383 54.999 84.3516C55.0038 84.365 55.0099 84.3822 55.0171 84.4026C55.0243 84.4231 55.0328 84.4473 55.0424 84.4748L34.2651 91.707L13.4879 98.9393C13.544 99.1004 13.5919 99.2329 13.6093 99.2812C13.6142 99.2946 13.6188 99.3073 13.6212 99.3138C13.6242 99.322 13.6249 99.3242 13.6254 99.3254C13.6262 99.3278 13.6201 99.3109 13.6109 99.2851L34.3296 91.8867ZM34.2651 91.707L13.3941 98.664L13.4048 98.6963L34.2759 91.7393L55.1469 84.7822L55.1362 84.75L34.2651 91.707ZM33.4321 80.1553L11.891 75.6855C11.8194 76.0306 11.7549 76.3635 11.6967 76.6823L33.3384 80.6367L54.9801 84.5911C54.9808 84.5873 54.9786 84.5993 54.9733 84.6251L33.4321 80.1553ZM33.3384 80.6367L54.9245 84.8839L55.0192 84.4024L33.4331 80.1553L11.847 75.9081L11.7522 76.3895L33.3384 80.6367ZM33.4331 80.1553L54.9741 84.6257C54.9765 84.6144 54.9768 84.6129 54.9754 84.6196C54.9739 84.6263 54.9703 84.6426 54.9646 84.6672L33.5376 79.6787L12.1106 74.6902C12.0259 75.054 11.9534 75.3895 11.8921 75.6849L33.4331 80.1553ZM33.5376 79.6787L12.0573 74.9249L11.9519 75.4014L33.4321 80.1553L54.9124 84.9091L55.0178 84.4325L33.5376 79.6787ZM55.0571 63.0098L48.7146 41.9439L41.0437 44.2534L47.3862 65.3193L53.7288 86.3852L61.3997 84.0757L55.0571 63.0098ZM47.3862 65.3193V87.3193H47.3872V65.3193V43.3193H47.3862V65.3193ZM47.3872 65.3193L53.7298 86.3852L61.4007 84.0757L55.0581 63.0098L48.7155 41.9439L41.0446 44.2534L47.3872 65.3193ZM55.0581 63.0098L76.1237 56.6663L73.5974 48.2766L52.5317 54.6201L31.4661 60.9636L33.9925 69.3532L55.0581 63.0098ZM52.5317 54.6201L31.4654 60.9613L33.9908 69.351L55.0571 63.0098L76.1234 56.6685L73.598 48.2789L52.5317 54.6201ZM57.5444 44.1758L64.1635 65.1564L73.3725 62.2512L66.7534 41.2705L60.1344 20.2898L50.9254 23.1951L57.5444 44.1758ZM66.7534 41.2705L45.7731 47.8907L52.903 70.4864L73.8833 63.8662L94.8636 57.2461L87.7337 34.6503L66.7534 41.2705ZM73.8833 63.8662H95.8833V63.8652H73.8833H51.8833V63.8662H73.8833ZM73.8833 63.8652L94.8636 57.2451L87.7337 34.6494L66.7534 41.2695L45.7731 47.8897L52.903 70.4854L73.8833 63.8652ZM66.7534 41.2695L60.1324 20.2895L50.9234 23.1958L57.5444 44.1758L64.1655 65.1558L73.3745 62.2496L66.7534 41.2695Z" fill="#EEFF00" mask="url(#path-1-outside-1_632_1029)"/>
</svg>
