<svg width="34" height="42" viewBox="0 0 34 42" fill="none" xmlns="http://www.w3.org/2000/svg">
<path d="M18.1123 2L18.5723 2.00684C20.8491 2.07377 22.9731 2.64141 24.9111 3.72559L24.9121 3.72461C27.0257 4.85691 28.7151 6.47245 29.9551 8.53906H29.9541C31.2217 10.6193 31.8242 13.0017 31.8242 15.6162C31.8242 18.2011 31.2203 20.5714 29.9678 22.6689C28.7611 24.7429 27.0903 26.3762 24.9844 27.542L24.9736 27.5479C22.891 28.6838 20.5722 29.2324 18.0645 29.2324H11.7119V39.5996H2V2H18.1123ZM11.7119 20.1924H17.3916C18.3586 20.1924 19.1586 19.9956 19.835 19.6465L19.8457 19.6406L19.8574 19.6348C20.5317 19.2976 21.0424 18.8193 21.4229 18.1641L21.4346 18.1436L21.4473 18.123C21.8341 17.4918 22.0644 16.6974 22.0645 15.6641C22.0645 14.5444 21.8237 13.7528 21.4619 13.1816L21.4414 13.1494L21.4229 13.1162C21.0423 12.4609 20.5318 11.9817 19.8574 11.6445L19.8232 11.6279L19.79 11.6094C19.1149 11.2392 18.3458 11.0401 17.4404 11.04H11.7119V20.1924Z" fill="black" stroke="#EEFF00" stroke-width="4"/>
</svg>
