<svg width="32" height="42" viewBox="0 0 32 42" fill="none" xmlns="http://www.w3.org/2000/svg">
<path d="M29.0879 2V11.0879H14.1758C13.743 11.0879 13.3721 11.1944 13.0205 11.4121L12.9912 11.4307L12.96 11.4482C12.594 11.6574 12.2975 11.938 12.0566 12.3164C11.874 12.6473 11.7598 13.058 11.7598 13.5996C11.7598 13.9844 11.8587 14.3416 12.085 14.707C12.3308 15.1042 12.6419 15.4192 13.0342 15.6689C13.3758 15.8585 13.774 15.9678 14.2725 15.9678H27.4082V25.0557H14.5596C13.9235 25.0557 13.4434 25.2005 13.0557 25.4365C12.6104 25.7076 12.2809 26.0483 12.0371 26.4746C11.8299 26.8594 11.7119 27.3065 11.7119 27.8564C11.712 28.3491 11.8197 28.8003 12.0381 29.2354C12.2782 29.627 12.5906 29.951 12.9961 30.2178C13.3943 30.4332 13.868 30.5596 14.4639 30.5596H29.0879V39.5996H13.7441C11.5643 39.5996 9.54477 39.0891 7.73926 38.0293L7.72559 38.0205L7.71191 38.0127C5.96054 36.9466 4.55639 35.5244 3.52344 33.7646L3.49805 33.7197C2.49511 31.9066 2 29.9232 2 27.8076C2.00006 26.0837 2.39531 24.4426 3.18066 22.9111L3.18457 22.9023L3.18945 22.8945C3.62683 22.0614 4.15492 21.3 4.77051 20.6123C4.17102 19.9476 3.65793 19.2172 3.23828 18.4199L3.22852 18.4004C2.45024 16.8827 2.04785 15.2749 2.04785 13.5996C2.04791 11.4846 2.54321 9.51851 3.56445 7.75098L3.57227 7.7373L3.58105 7.72266C4.61388 6.00138 6.00137 4.61388 7.72266 3.58105C9.48866 2.52145 11.4476 2.00004 13.5518 2H29.0879Z" fill="black" stroke="#EEFF00" stroke-width="4"/>
</svg>
