<svg width="46" height="43" viewBox="0 0 46 43" fill="none" xmlns="http://www.w3.org/2000/svg">
<path d="M22.7905 2C24.4657 2.00001 26.0259 2.40307 27.4028 3.26367L27.4019 3.26465C28.9 4.18052 29.9338 5.57962 30.5688 7.28613V7.28711L41.8013 37.4785L42.8042 40.1758H32.2173L31.7495 38.834L29.6255 32.7363H15.8423L13.6313 38.8555L13.1548 40.1758H2.87549L3.87549 37.4805L15.0591 7.33594L15.0747 7.29688C15.7397 5.61475 16.7644 4.22508 18.2261 3.31152V3.3125C19.5906 2.42736 21.1325 2 22.7905 2ZM19.0142 23.6484H26.519L22.8638 12.9766L19.0142 23.6484Z" fill="black" stroke="#EEFF00" stroke-width="4"/>
</svg>
