<svg width="41" height="43" viewBox="0 0 41 43" fill="none" xmlns="http://www.w3.org/2000/svg">
<path d="M13.5518 2C15.7813 2 17.8278 2.50508 19.6211 3.58105C21.3613 4.6252 22.7298 6.05003 23.7002 7.8291L23.8789 8.16309C24.7396 9.84429 25.1523 11.7028 25.1523 13.6963V29.7764C25.1524 30.1684 25.2397 30.486 25.3994 30.7695C25.584 31.0649 25.8168 31.2952 26.1152 31.4775C26.3786 31.6384 26.6422 31.7119 26.9443 31.7119C27.2967 31.7119 27.5732 31.6291 27.8213 31.4775C28.1101 31.301 28.3119 31.0868 28.46 30.8203L28.4688 30.8057L28.4775 30.79C28.6446 30.5014 28.7363 30.1777 28.7363 29.7764V2.57617H38.4961V29.0557C38.4961 31.1573 38.024 33.1218 37.0537 34.9072C36.0859 36.6881 34.7189 38.1138 32.9814 39.1602C31.2107 40.2467 29.1725 40.7519 26.9443 40.752C24.7651 40.752 22.7536 40.2406 20.9707 39.1709C19.2254 38.1237 17.8537 36.6936 16.8828 34.9072C15.9125 33.1218 15.4404 31.1573 15.4404 29.0557V12.9756C15.4404 12.5734 15.348 12.2846 15.2051 12.0508L15.1934 12.0303L15.1807 12.0098C15.0038 11.7044 14.7752 11.4757 14.4697 11.2988L14.4492 11.2871L14.4287 11.2744C14.1806 11.1229 13.9041 11.04 13.5518 11.04C13.1993 11.0401 12.9229 11.1228 12.6748 11.2744C12.3951 11.4454 12.1627 11.6782 11.9707 12.0098L11.959 12.0303L11.9463 12.0508C11.8034 12.2846 11.712 12.5734 11.7119 12.9756V40.1758H2V13.6963C2 11.5758 2.46789 9.60885 3.44434 7.84473H3.44238C4.41335 6.05816 5.78577 4.62834 7.53125 3.58105C9.31929 2.50827 11.3476 2.00004 13.5518 2Z" fill="black" stroke="#EEFF00" stroke-width="4"/>
</svg>
